<svg width="81" height="80" viewBox="0 0 81 80" fill="none" xmlns="http://www.w3.org/2000/svg">
<rect x="1.37109" y="0.869568" width="78.2609" height="78.2609" rx="13.913" fill="#4A4A4A"/>
<path fill-rule="evenodd" clip-rule="evenodd" d="M45.3238 60.6012C43.6432 61.0252 41.8855 61.2501 40.0761 61.2501C39.8908 61.2501 39.706 61.2478 39.5217 61.2431C38.7797 61.0303 38.2247 60.6704 37.9305 60.1797C37.0175 58.6578 36.9959 55.1926 36.9794 51.1858L36.972 50.0418C36.9426 45.9999 36.9186 42.5148 38.3521 41.2649C38.9075 40.7832 39.697 40.6242 40.7681 40.7968C44.8302 41.4401 45.1863 44.0014 45.5016 46.2683L45.5036 46.2827L45.5381 46.5347L45.7255 47.8134L45.7362 47.8842C46.1068 50.3507 46.8574 55.3458 46.8574 57.9644C46.8574 58.625 46.8013 59.1327 46.6974 59.4111C46.5244 59.8413 46.0226 60.2566 45.3238 60.6012ZM51.0555 58.2255C51.8831 57.7318 52.6757 57.184 53.4288 56.5869C53.5258 56.3901 53.6021 56.1537 53.6574 55.8529C53.8633 54.8128 51.3705 48.929 49.9782 49.5937C48.9102 50.1169 49.3244 56.1289 50.428 58.0462C50.5449 58.2417 50.7846 58.2731 51.0555 58.2255ZM56.6697 53.4225C56.5546 53.3649 56.3406 53.1686 55.955 52.5731C55.558 51.9811 52.1384 46.5723 52.1384 40.3726C52.1384 39.1555 53.8449 37.2549 55.3545 35.5861L55.3753 35.563C56.4971 34.3161 57.5544 33.141 57.9458 32.216C58.4478 31.0153 58.0976 30.1764 57.5414 29.8924C57.0394 29.6396 56.2856 29.8241 55.7565 30.79C54.8882 32.3538 54.6093 32.6458 53.3429 33.6923C52.0961 34.7373 50.1151 35.7894 50.1151 34.4277C50.1151 33.9296 50.6208 33.0045 51.117 32.0966C51.3535 31.664 51.5878 31.2354 51.7643 30.8587C52.3204 29.6771 51.72 28.8223 50.5716 28.8223C48.3129 28.8223 46.8131 31.7786 46.8131 32.8024C46.8131 33.2948 46.925 33.5841 47.0412 33.8844C47.1665 34.2084 47.2967 34.5451 47.2967 35.1635C47.2967 36.3638 44.8192 37.9208 42.4859 37.9208C40.137 37.9208 38.8196 37.4107 38.3274 35.9531L38.1725 35.4782C38.1589 35.4376 38.1455 35.3972 38.1321 35.3571C37.5976 33.756 37.2045 32.5782 36.5296 31.3488C36.1708 30.698 35.6225 30.2424 35.142 29.8432C35.1303 29.8335 35.1187 29.8238 35.1071 29.8141C34.4658 29.3025 34.1344 28.8323 34.065 28.4808C34.001 28.1333 33.9661 27.4774 35.0604 25.9643C36.1535 24.46 36.3064 23.324 35.7597 22.7376C35.5612 22.5299 35.2243 22.3961 34.7902 22.3961C34.0226 22.3961 32.9578 22.8135 31.8592 23.9611C30.5258 25.365 30.8247 26.7136 31.0198 27.5936C31.0745 27.8406 31.1211 28.0507 31.1211 28.2148C31.1211 28.9645 30.8077 29.3887 29.7829 30.4069C28.7518 31.4307 28.3953 32.3087 28.2769 35.8349C28.2314 37.6524 27.92 38.6981 27.6415 39.626C27.3995 40.4389 27.1771 41.203 27.1654 42.3071C27.1461 43.5309 27.3442 44.3194 27.5764 45.2294C27.8019 46.071 28.0439 47.034 28.1976 48.6462C28.4643 51.3496 28.342 53.5977 27.7921 55.9436L27.765 56.0982L27.7577 56.1287C27.667 56.5039 27.5595 56.9486 27.4149 57.1138C21.9104 53.0956 18.3242 46.5271 18.3242 39.1079C18.3242 26.875 28.063 16.9565 40.0761 16.9565C52.0579 16.9565 61.7759 26.8223 61.8269 39.0109V39.2034C61.8042 44.6231 59.8678 49.5845 56.6697 53.4225ZM31.8827 59.6252C32.287 59.7927 32.6974 59.9482 33.1134 60.0912C33.4873 59.7608 33.7197 58.8307 33.643 56.5575C33.5335 53.3065 32.9872 49.0193 32.1369 49.068C31.2195 49.1255 30.8717 54.0175 31.2729 57.2817C31.404 58.3236 31.6116 59.1199 31.8827 59.6252Z" fill="white"/>
</svg>
