<svg width="676" height="325" viewBox="0 0 676 325" fill="none" xmlns="http://www.w3.org/2000/svg">
<path d="M230 195.975C264.242 195.975 292 168.078 292 133.665C292 99.2521 264.242 71.355 230 71.355C195.758 71.355 168 99.2521 168 133.665C168 168.078 195.758 195.975 230 195.975Z" fill="#DDDDDD"/>
<path d="M457 201C481.301 201 501 181.202 501 156.78C501 132.358 481.301 112.56 457 112.56C432.699 112.56 413 132.358 413 156.78C413 181.202 432.699 201 457 201Z" fill="#DDDDDD"/>
<path d="M325 110.55C344.882 110.55 361 94.3517 361 74.37C361 54.3883 344.882 38.19 325 38.19C305.118 38.19 289 54.3883 289 74.37C289 94.3517 305.118 110.55 325 110.55Z" fill="#DDDDDD"/>
<path d="M424 106.53C450.51 106.53 472 84.9322 472 58.29C472 31.6478 450.51 10.05 424 10.05C397.49 10.05 376 31.6478 376 58.29C376 84.9322 397.49 106.53 424 106.53Z" fill="#DDDDDD"/>
<rect x="276" y="104.52" width="124" height="96.48" rx="16" fill="#FFD300"/>
<path fill-rule="evenodd" clip-rule="evenodd" d="M366 127.635H310V147.735H320.182V177.885H325.273L327.818 175.372L330.364 177.885L332.909 175.372L335.455 177.885L338 175.372L340.545 177.885L343.091 175.372L345.636 177.885L348.182 175.372L350.727 177.885H355.818V147.735H366V127.635ZM360.909 142.71H355.818V137.685H320.182V142.71H315.091V132.66H360.909V142.71ZM350.729 172.86L348.184 170.348L345.638 172.86L343.093 170.348L340.547 172.86L338.002 170.348L335.456 172.86C335.456 172.86 332.832 170.425 332.911 170.348L330.366 172.86L327.82 170.348L325.275 172.86V142.71H350.729V172.86ZM345.636 147.735H330.364V150.248H345.636V147.735ZM345.636 152.759H330.364V155.272H345.636V152.759ZM345.636 157.785H330.364V160.298H345.636V157.785Z" fill="white"/>
<path d="M230 57.285C243.255 57.285 254 46.4861 254 33.165C254 19.8439 243.255 9.04501 230 9.04501C216.745 9.04501 206 19.8439 206 33.165C206 46.4861 216.745 57.285 230 57.285Z" fill="#DDDDDD"/>
<rect x="211.5" y="100.985" width="37" height="65.36" rx="4.5" stroke="white" stroke-width="7"/>
<rect x="402" y="47.25" width="44" height="34.14" rx="5" stroke="#FFFEFE" stroke-width="6"/>
<path d="M424 31.893L453.121 53.7825L394.879 53.7825L424 31.893Z" fill="#DDDDDD" stroke="white" stroke-width="6"/>
<path d="M431 144.7C431 142.491 432.791 140.7 435 140.7H457H473.062C474.286 140.7 475.443 141.26 476.201 142.221L482.139 149.74C482.697 150.446 483 151.32 483 152.219V154.77V164.84C483 167.049 481.209 168.84 479 168.84H435C432.791 168.84 431 167.049 431 164.84V144.7Z" stroke="white" stroke-width="6"/>
<path d="M440.5 176.87C444.099 176.87 447 173.94 447 170.348C447 166.755 444.099 163.825 440.5 163.825C436.901 163.825 434 166.755 434 170.348C434 173.94 436.901 176.87 440.5 176.87Z" fill="white" stroke="#DDDDDD" stroke-width="4"/>
<path d="M471.5 176.87C475.099 176.87 478 173.94 478 170.348C478 166.755 475.099 163.825 471.5 163.825C467.901 163.825 465 166.755 465 170.348C465 173.94 467.901 176.87 471.5 176.87Z" fill="white" stroke="#DDDDDD" stroke-width="4"/>
<rect x="453" y="149.745" width="31" height="6.03" rx="3.015" fill="white"/>
<rect x="223" y="107.535" width="14" height="6.03001" rx="3.015" fill="white"/>
<rect x="405" y="50.25" width="38" height="10.05" fill="#DDDDDD"/>
<mask id="path-17-inside-1_6840_112003" fill="white">
<rect x="415" y="59.295" width="19" height="25.125" rx="2"/>
</mask>
<rect x="415" y="59.295" width="19" height="25.125" rx="2" stroke="white" stroke-width="12" mask="url(#path-17-inside-1_6840_112003)"/>
<mask id="path-18-inside-2_6840_112003" fill="white">
<rect x="305" y="56.28" width="40" height="28.14" rx="4"/>
</mask>
<rect x="305" y="56.28" width="40" height="28.14" rx="4" stroke="white" stroke-width="12" mask="url(#path-18-inside-2_6840_112003)"/>
<rect x="317" y="87.435" width="16" height="6.03001" rx="3.015" fill="white"/>
<path d="M218 22.7704L230 26.2879L230 45.5696L218 42.0521L218 22.7704Z" stroke="white" stroke-width="4"/>
<path d="M218 22.7704L230 26.2879L230 45.5696L218 42.0521L218 22.7704Z" stroke="white" stroke-width="4"/>
<path d="M218 22.7704L230 26.2879L230 45.5696L218 42.0521L218 22.7704Z" stroke="white" stroke-width="4"/>
<path d="M242 22.7704L230 26.2879V36.515V42.3775L230 45.5696L231.437 45.1483L235.437 43.9758L242 42.0521L242 22.7704Z" stroke="white" stroke-width="4"/>
<path d="M242 22.7704L230 26.2879V36.515V42.3775L230 45.5696L231.437 45.1483L235.437 43.9758L242 42.0521L242 22.7704Z" stroke="white" stroke-width="4"/>
<path d="M242 22.7704L230 26.2879V36.515V42.3775L230 45.5696L231.437 45.1483L235.437 43.9758L242 42.0521L242 22.7704Z" stroke="white" stroke-width="4"/>
<path d="M52.9219 253.125V310H39.2109V263.711H18.7812V310H5.10938V253.125H52.9219Z" fill="black"/>
<path d="M89.5625 267.734V277.891H68.625V267.734H89.5625ZM98.6641 267.734V310H85.5V267.734H98.6641ZM65.3047 267.734H78.1562L76.9844 289.492C76.8281 292.513 76.4766 295.156 75.9297 297.422C75.4089 299.688 74.7057 301.628 73.8203 303.242C72.9609 304.831 71.9323 306.133 70.7344 307.148C69.5365 308.138 68.1823 308.867 66.6719 309.336C65.1615 309.779 63.5208 310 61.75 310H57.7656L57.5703 299.922L58.9766 299.766C59.6797 299.688 60.3047 299.453 60.8516 299.062C61.3984 298.672 61.8802 298.125 62.2969 297.422C62.7135 296.719 63.0651 295.82 63.3516 294.727C63.6641 293.633 63.9115 292.344 64.0938 290.859C64.3021 289.375 64.4453 287.669 64.5234 285.742L65.3047 267.734Z" fill="black"/>
<path d="M127.844 299.375V281.953C127.844 280.755 127.674 279.727 127.336 278.867C126.997 278.008 126.464 277.344 125.734 276.875C125.005 276.38 124.029 276.133 122.805 276.133C121.815 276.133 120.969 276.302 120.266 276.641C119.562 276.979 119.029 277.487 118.664 278.164C118.299 278.841 118.117 279.701 118.117 280.742H104.953C104.953 278.789 105.383 276.979 106.242 275.312C107.128 273.62 108.378 272.148 109.992 270.898C111.633 269.648 113.586 268.685 115.852 268.008C118.143 267.305 120.695 266.953 123.508 266.953C126.867 266.953 129.862 267.513 132.492 268.633C135.148 269.753 137.245 271.432 138.781 273.672C140.318 275.885 141.086 278.672 141.086 282.031V299.336C141.086 302.096 141.242 304.193 141.555 305.625C141.867 307.031 142.31 308.268 142.883 309.336V310H129.68C129.055 308.698 128.586 307.109 128.273 305.234C127.987 303.333 127.844 301.38 127.844 299.375ZM129.445 284.18L129.523 291.211H123.703C122.479 291.211 121.438 291.38 120.578 291.719C119.745 292.057 119.068 292.526 118.547 293.125C118.052 293.698 117.688 294.349 117.453 295.078C117.245 295.807 117.141 296.576 117.141 297.383C117.141 298.164 117.323 298.867 117.688 299.492C118.078 300.091 118.599 300.56 119.25 300.898C119.901 301.237 120.63 301.406 121.438 301.406C122.896 301.406 124.133 301.133 125.148 300.586C126.19 300.013 126.984 299.323 127.531 298.516C128.078 297.708 128.352 296.953 128.352 296.25L131.242 301.641C130.721 302.682 130.122 303.737 129.445 304.805C128.794 305.872 127.974 306.862 126.984 307.773C126.021 308.659 124.836 309.388 123.43 309.961C122.023 310.508 120.318 310.781 118.312 310.781C115.708 310.781 113.312 310.247 111.125 309.18C108.964 308.112 107.232 306.628 105.93 304.727C104.628 302.799 103.977 300.586 103.977 298.086C103.977 295.898 104.367 293.945 105.148 292.227C105.956 290.508 107.167 289.049 108.781 287.852C110.396 286.654 112.453 285.742 114.953 285.117C117.453 284.492 120.396 284.18 123.781 284.18H129.445Z" fill="black"/>
<path d="M171.438 267.734V310H158.234V267.734H171.438ZM184.797 267.734V277.812H145.109V267.734H184.797Z" fill="black"/>
<path d="M207.688 310.781C204.25 310.781 201.177 310.247 198.469 309.18C195.76 308.086 193.469 306.589 191.594 304.688C189.745 302.786 188.326 300.599 187.336 298.125C186.372 295.651 185.891 293.034 185.891 290.273V288.789C185.891 285.69 186.32 282.826 187.18 280.195C188.039 277.539 189.315 275.221 191.008 273.242C192.701 271.263 194.823 269.727 197.375 268.633C199.927 267.513 202.896 266.953 206.281 266.953C209.276 266.953 211.958 267.435 214.328 268.398C216.698 269.362 218.703 270.742 220.344 272.539C222.01 274.336 223.273 276.51 224.133 279.062C225.018 281.615 225.461 284.479 225.461 287.656V293.008H190.93V284.766H212.609V283.75C212.635 282.344 212.388 281.146 211.867 280.156C211.372 279.167 210.643 278.411 209.68 277.891C208.716 277.37 207.544 277.109 206.164 277.109C204.732 277.109 203.547 277.422 202.609 278.047C201.698 278.672 200.982 279.531 200.461 280.625C199.966 281.693 199.615 282.93 199.406 284.336C199.198 285.742 199.094 287.227 199.094 288.789V290.273C199.094 291.836 199.302 293.255 199.719 294.531C200.161 295.807 200.786 296.901 201.594 297.812C202.427 298.698 203.417 299.388 204.562 299.883C205.734 300.378 207.062 300.625 208.547 300.625C210.344 300.625 212.115 300.286 213.859 299.609C215.604 298.932 217.102 297.812 218.352 296.25L224.328 303.359C223.469 304.583 222.245 305.768 220.656 306.914C219.094 308.06 217.219 308.997 215.031 309.727C212.844 310.43 210.396 310.781 207.688 310.781Z" fill="black"/>
<path d="M246.867 295.234L228.547 267.734H244.992L253.039 282.93H260.93L259.445 295.234H246.867ZM253.117 292.773L244.719 310H229.055L241.75 287.266L253.117 292.773ZM269.953 267.734V310H256.828V267.734H269.953ZM298.352 267.734L280.031 295.234H267.453L266.008 282.93H273.898L281.906 267.734H298.352ZM282.141 310L273.781 292.773L285.617 287.266L298.234 310H282.141Z" fill="black"/>
<path d="M315.969 292.266L327.609 267.734H340.773V310H327.609V285.391L315.969 310H302.766V267.734H315.969V292.266Z" fill="black"/>
<path d="M382.18 253.125V310H368.469V253.125H382.18ZM416.125 253.125L394.094 281.953L381.203 296.055L378.703 283.477L386.945 270.977L399.211 253.125H416.125ZM399.914 310L385.227 284.375L395.891 276.523L416.125 310H399.914Z" fill="black"/>
<path d="M440.969 299.375V281.953C440.969 280.755 440.799 279.727 440.461 278.867C440.122 278.008 439.589 277.344 438.859 276.875C438.13 276.38 437.154 276.133 435.93 276.133C434.94 276.133 434.094 276.302 433.391 276.641C432.688 276.979 432.154 277.487 431.789 278.164C431.424 278.841 431.242 279.701 431.242 280.742H418.078C418.078 278.789 418.508 276.979 419.367 275.312C420.253 273.62 421.503 272.148 423.117 270.898C424.758 269.648 426.711 268.685 428.977 268.008C431.268 267.305 433.82 266.953 436.633 266.953C439.992 266.953 442.987 267.513 445.617 268.633C448.273 269.753 450.37 271.432 451.906 273.672C453.443 275.885 454.211 278.672 454.211 282.031V299.336C454.211 302.096 454.367 304.193 454.68 305.625C454.992 307.031 455.435 308.268 456.008 309.336V310H442.805C442.18 308.698 441.711 307.109 441.398 305.234C441.112 303.333 440.969 301.38 440.969 299.375ZM442.57 284.18L442.648 291.211H436.828C435.604 291.211 434.562 291.38 433.703 291.719C432.87 292.057 432.193 292.526 431.672 293.125C431.177 293.698 430.812 294.349 430.578 295.078C430.37 295.807 430.266 296.576 430.266 297.383C430.266 298.164 430.448 298.867 430.812 299.492C431.203 300.091 431.724 300.56 432.375 300.898C433.026 301.237 433.755 301.406 434.562 301.406C436.021 301.406 437.258 301.133 438.273 300.586C439.315 300.013 440.109 299.323 440.656 298.516C441.203 297.708 441.477 296.953 441.477 296.25L444.367 301.641C443.846 302.682 443.247 303.737 442.57 304.805C441.919 305.872 441.099 306.862 440.109 307.773C439.146 308.659 437.961 309.388 436.555 309.961C435.148 310.508 433.443 310.781 431.438 310.781C428.833 310.781 426.438 310.247 424.25 309.18C422.089 308.112 420.357 306.628 419.055 304.727C417.753 302.799 417.102 300.586 417.102 298.086C417.102 295.898 417.492 293.945 418.273 292.227C419.081 290.508 420.292 289.049 421.906 287.852C423.521 286.654 425.578 285.742 428.078 285.117C430.578 284.492 433.521 284.18 436.906 284.18H442.57Z" fill="black"/>
<path d="M483.664 298.125C483.664 297.396 483.417 296.771 482.922 296.25C482.453 295.703 481.62 295.208 480.422 294.766C479.224 294.297 477.544 293.828 475.383 293.359C473.326 292.917 471.385 292.331 469.562 291.602C467.766 290.872 466.19 289.987 464.836 288.945C463.482 287.904 462.414 286.667 461.633 285.234C460.878 283.802 460.5 282.161 460.5 280.312C460.5 278.516 460.878 276.823 461.633 275.234C462.414 273.62 463.547 272.201 465.031 270.977C466.542 269.727 468.378 268.75 470.539 268.047C472.701 267.318 475.161 266.953 477.922 266.953C481.724 266.953 485.005 267.539 487.766 268.711C490.526 269.857 492.648 271.471 494.133 273.555C495.643 275.612 496.398 277.995 496.398 280.703H483.234C483.234 279.635 483.052 278.724 482.688 277.969C482.349 277.214 481.789 276.641 481.008 276.25C480.227 275.833 479.185 275.625 477.883 275.625C476.971 275.625 476.138 275.794 475.383 276.133C474.654 276.471 474.068 276.94 473.625 277.539C473.182 278.138 472.961 278.841 472.961 279.648C472.961 280.221 473.091 280.742 473.352 281.211C473.638 281.654 474.068 282.07 474.641 282.461C475.214 282.826 475.943 283.164 476.828 283.477C477.714 283.763 478.781 284.023 480.031 284.258C482.87 284.779 485.526 285.521 488 286.484C490.474 287.448 492.479 288.815 494.016 290.586C495.578 292.357 496.359 294.74 496.359 297.734C496.359 299.609 495.93 301.341 495.07 302.93C494.211 304.492 492.974 305.872 491.359 307.07C489.745 308.242 487.805 309.154 485.539 309.805C483.273 310.456 480.721 310.781 477.883 310.781C473.846 310.781 470.435 310.065 467.648 308.633C464.862 307.174 462.753 305.352 461.32 303.164C459.914 300.951 459.211 298.711 459.211 296.445H471.477C471.529 297.747 471.841 298.815 472.414 299.648C473.013 300.482 473.807 301.094 474.797 301.484C475.786 301.875 476.932 302.07 478.234 302.07C479.432 302.07 480.422 301.901 481.203 301.562C482.01 301.224 482.622 300.768 483.039 300.195C483.456 299.596 483.664 298.906 483.664 298.125Z" fill="black"/>
<path d="M515.812 275.859V326.25H502.648V267.734H514.914L515.812 275.859ZM541.75 288.359V289.18C541.75 292.253 541.398 295.104 540.695 297.734C539.992 300.365 538.951 302.656 537.57 304.609C536.19 306.562 534.471 308.086 532.414 309.18C530.383 310.247 528.026 310.781 525.344 310.781C522.818 310.781 520.643 310.221 518.82 309.102C516.997 307.982 515.474 306.432 514.25 304.453C513.026 302.474 512.036 300.208 511.281 297.656C510.526 295.104 509.927 292.409 509.484 289.57V288.516C509.927 285.469 510.526 282.643 511.281 280.039C512.036 277.409 513.026 275.117 514.25 273.164C515.474 271.211 516.984 269.688 518.781 268.594C520.604 267.5 522.779 266.953 525.305 266.953C527.987 266.953 530.344 267.461 532.375 268.477C534.432 269.492 536.151 270.951 537.531 272.852C538.938 274.727 539.992 276.979 540.695 279.609C541.398 282.24 541.75 285.156 541.75 288.359ZM528.586 289.18V288.359C528.586 286.719 528.469 285.221 528.234 283.867C528 282.487 527.622 281.289 527.102 280.273C526.607 279.258 525.943 278.477 525.109 277.93C524.276 277.383 523.247 277.109 522.023 277.109C520.617 277.109 519.432 277.331 518.469 277.773C517.531 278.19 516.776 278.841 516.203 279.727C515.656 280.586 515.266 281.667 515.031 282.969C514.823 284.245 514.732 285.742 514.758 287.461V290.664C514.706 292.643 514.901 294.388 515.344 295.898C515.786 297.383 516.555 298.542 517.648 299.375C518.742 300.208 520.227 300.625 522.102 300.625C523.352 300.625 524.393 300.339 525.227 299.766C526.06 299.167 526.724 298.346 527.219 297.305C527.714 296.237 528.065 295.013 528.273 293.633C528.482 292.253 528.586 290.768 528.586 289.18Z" fill="black"/>
<path d="M561.516 267.734V310H548.312V267.734H561.516ZM547.531 256.836C547.531 254.961 548.208 253.424 549.562 252.227C550.917 251.029 552.674 250.43 554.836 250.43C556.997 250.43 558.755 251.029 560.109 252.227C561.464 253.424 562.141 254.961 562.141 256.836C562.141 258.711 561.464 260.247 560.109 261.445C558.755 262.643 556.997 263.242 554.836 263.242C552.674 263.242 550.917 262.643 549.562 261.445C548.208 260.247 547.531 258.711 547.531 256.836Z" fill="black"/>
<path d="M570.5 303.828C570.5 301.953 571.177 300.391 572.531 299.141C573.885 297.865 575.63 297.227 577.766 297.227C579.927 297.227 581.672 297.865 583 299.141C584.354 300.391 585.031 301.953 585.031 303.828C585.031 305.703 584.354 307.279 583 308.555C581.672 309.805 579.927 310.43 577.766 310.43C575.63 310.43 573.885 309.805 572.531 308.555C571.177 307.279 570.5 305.703 570.5 303.828Z" fill="black"/>
<path d="M607.141 249.961V310H593.977V249.961H607.141ZM634.172 267.734L615.812 289.258L606.203 298.867L600.461 290.508L608.469 280.078L618.391 267.734H634.172ZM620.07 310L608.781 290.742L618.508 283.828L635.148 310H620.07Z" fill="black"/>
<path d="M672.375 299.844V310H639.641V299.844H672.375ZM671.984 274.844L645.539 310H636.516V302.656L662.922 267.734H671.984V274.844ZM667.648 267.734V277.891H637.297V267.734H667.648Z" fill="black"/>
</svg>
