<svg width="728" height="325" viewBox="0 0 728 325" fill="none" xmlns="http://www.w3.org/2000/svg">
<rect x="204" y="79" width="168" height="121" rx="16" fill="#DDDDDD"/>
<rect x="227" y="146" width="101" height="18" rx="9" fill="white"/>
<rect x="227" y="146" width="101" height="18" rx="9" fill="white"/>
<rect x="412" y="93" width="112" height="78" rx="12" fill="#DDDDDD"/>
<rect x="430" y="137" width="74" height="14" rx="7" fill="white"/>
<rect x="430" y="137" width="74" height="14" rx="7" fill="white"/>
<rect x="430" y="113" width="25" height="14" rx="7" fill="white"/>
<rect x="430" y="113" width="25" height="14" rx="7" fill="white"/>
<rect x="302" y="104.52" width="124" height="96.48" rx="16" fill="#FFD300"/>
<path fill-rule="evenodd" clip-rule="evenodd" d="M340.727 143.624C340.727 145.213 339.447 146.502 337.864 146.502C336.28 146.502 335 145.213 335 143.624C335 137.966 340.355 132.113 349.318 132.113H382.496L375.93 125.513C374.81 124.391 374.81 122.566 375.93 121.444C377.05 120.319 378.86 120.319 379.979 121.444L391.434 132.956C392.553 134.078 392.553 135.903 391.434 137.025L379.979 148.537C379.421 149.098 378.688 149.38 377.955 149.38C377.222 149.38 376.488 149.098 375.93 148.537C374.81 147.415 374.81 145.59 375.93 144.468L382.496 137.868H349.318C344.012 137.868 340.727 140.856 340.727 143.624ZM386.546 160.919C386.546 159.331 387.826 158.041 389.41 158.041C390.993 158.041 392.273 159.331 392.273 160.919C392.273 166.578 386.918 172.431 377.955 172.431H344.777L351.343 179.03C352.463 180.153 352.463 181.977 351.343 183.1C350.224 184.225 348.414 184.225 347.294 183.1L335.84 171.588C334.72 170.466 334.72 168.641 335.84 167.519L347.294 156.007C347.853 155.446 348.586 155.164 349.319 155.164C350.052 155.164 350.785 155.446 351.343 156.007C352.463 157.129 352.463 158.954 351.343 160.076L344.777 166.675H377.955C383.262 166.675 386.546 163.688 386.546 160.919Z" fill="white"/>
<rect x="227" y="114" width="32" height="18" rx="9" fill="white"/>
<rect x="227" y="114" width="32" height="18" rx="9" fill="white"/>
<path fill-rule="evenodd" clip-rule="evenodd" d="M416.298 53.2214C416.427 51.9263 416.497 50.5981 416.497 49.245C416.497 48.0242 416.44 46.8237 416.334 45.6495C413.708 46.0543 410.885 46.294 407.945 46.294C405.044 46.294 402.256 46.0604 399.659 45.6651C399.554 46.8344 399.497 48.0297 399.497 49.245C399.497 50.5927 399.567 51.9157 399.695 53.2058C402.282 52.8138 405.058 52.5824 407.945 52.5824C410.871 52.5824 413.682 52.82 416.298 53.2214ZM415.002 60.1397C412.798 59.8128 410.422 59.6174 407.945 59.6174C405.506 59.6174 403.165 59.807 400.988 60.1251C401.705 62.7126 402.625 65.0485 403.628 67.0351C404.769 69.2964 405.963 70.9987 406.982 72.0772C407.074 72.1747 407.163 72.2648 407.248 72.3479C407.498 72.3559 407.748 72.36 408 72.36C408.25 72.36 408.499 72.356 408.747 72.3481C408.832 72.2649 408.92 72.1747 409.012 72.0772C410.032 70.9987 411.226 69.2964 412.367 67.0351C413.367 65.0522 414.287 62.7214 415.002 60.1397ZM418.917 69.5954C420.039 67.2718 421.051 64.6093 421.836 61.6964C422.28 61.8373 422.708 61.9821 423.117 62.1297C424.341 62.5713 425.357 63.0208 426.155 63.4382C424.2 65.9608 421.735 68.0651 418.917 69.5954ZM411.28 79.2168C410.203 79.3346 409.109 79.395 408 79.395C407.999 79.395 407.998 79.395 407.997 79.395C406.887 79.3949 405.792 79.3342 404.713 79.2161C394.613 78.1099 386.019 71.9654 381.471 63.3359C381.423 63.2437 381.374 63.1512 381.327 63.0584C379.201 58.9201 378 54.2235 378 49.245C378 33.71 389.691 20.9192 404.713 19.2739C405.792 19.1558 406.887 19.0951 407.997 19.095C407.998 19.095 407.999 19.095 408 19.095C409.109 19.095 410.203 19.1554 411.28 19.2732C426.306 20.9154 438 33.7077 438 49.245C438 54.3019 436.761 59.0681 434.572 63.2537C434.558 63.2811 434.543 63.3086 434.529 63.3359C429.98 71.9672 421.383 78.1126 411.28 79.2168ZM427.944 64.6239C427.962 64.6459 427.957 64.6428 427.936 64.6156C427.94 64.619 427.942 64.6218 427.944 64.6239ZM429.567 57.2935C428.373 56.6549 426.99 56.0525 425.481 55.5081C424.752 55.2453 423.982 54.9916 423.173 54.7509C423.383 52.9665 423.497 51.1263 423.497 49.245C423.497 47.4948 423.398 45.7801 423.216 44.1129C424.009 43.876 424.765 43.6266 425.481 43.3683C427.04 42.8061 428.464 42.182 429.684 41.52C430.536 43.9356 431 46.5359 431 49.245C431 52.0755 430.494 54.7871 429.567 57.2935ZM427.944 34.2525C427.942 34.2547 427.94 34.2575 427.936 34.2608C427.957 34.2337 427.962 34.2306 427.944 34.2525ZM426.365 35.3265C425.538 35.7749 424.451 36.2654 423.117 36.7467C422.737 36.8838 422.341 37.0185 421.931 37.1499C421.133 34.0976 420.085 31.3126 418.917 28.8946C421.837 30.4801 424.377 32.6818 426.365 35.3265ZM407.248 26.1421C407.498 26.1341 407.748 26.13 408 26.13C408.25 26.13 408.499 26.134 408.747 26.142C408.832 26.2251 408.92 26.3153 409.012 26.4128C410.032 27.4913 411.226 29.1936 412.367 31.4549C413.415 33.5324 414.374 35.9918 415.104 38.7216C412.871 39.0576 410.46 39.259 407.945 39.259C405.468 39.259 403.092 39.0635 400.887 38.7365C401.617 36.0008 402.578 33.5362 403.628 31.4549C404.769 29.1936 405.963 27.4913 406.982 26.4128C407.074 26.3153 407.163 26.2252 407.248 26.1421ZM397.076 28.8985C394.144 30.4921 391.595 32.7073 389.604 35.3684C390.42 35.8053 391.481 36.2804 392.774 36.7467C393.184 36.8945 393.611 37.0394 394.056 37.1805C394.854 34.1178 395.905 31.3237 397.076 28.8985ZM392.776 44.1428C392.595 45.8006 392.497 47.5052 392.497 49.245C392.497 51.1159 392.611 52.9461 392.818 54.7211C391.973 54.9707 391.169 55.2344 390.41 55.5081C388.939 56.0387 387.588 56.6244 386.415 57.245C385.5 54.7522 385 52.0572 385 49.245C385 46.5544 385.457 43.9711 386.298 41.5695C387.498 42.2131 388.89 42.8202 390.41 43.3683C391.156 43.6375 391.946 43.897 392.776 44.1428ZM387.947 34.2525C387.928 34.2306 387.934 34.2337 387.954 34.2608C387.951 34.2575 387.949 34.2547 387.947 34.2525ZM387.947 64.6239C387.949 64.6218 387.951 64.619 387.954 64.6156C387.934 64.6428 387.928 64.6459 387.947 64.6239ZM389.814 63.3978C390.599 62.9918 391.589 62.5571 392.774 62.1297C393.213 61.9715 393.672 61.8166 394.15 61.6661C394.936 64.5892 395.951 67.2608 397.076 69.5915C394.246 68.0534 391.772 65.9361 389.814 63.3978Z" fill="#DDDDDD"/>
<path d="M52.9062 253.125V310H39.1953V263.711H18.7656V310H5.09375V253.125H52.9062Z" fill="black"/>
<path d="M81.3438 310.781C77.9062 310.781 74.8333 310.247 72.125 309.18C69.4167 308.086 67.125 306.589 65.25 304.688C63.401 302.786 61.9818 300.599 60.9922 298.125C60.0286 295.651 59.5469 293.034 59.5469 290.273V288.789C59.5469 285.69 59.9766 282.826 60.8359 280.195C61.6953 277.539 62.9714 275.221 64.6641 273.242C66.3568 271.263 68.4792 269.727 71.0312 268.633C73.5833 267.513 76.5521 266.953 79.9375 266.953C82.9323 266.953 85.6146 267.435 87.9844 268.398C90.3542 269.362 92.3594 270.742 94 272.539C95.6667 274.336 96.9297 276.51 97.7891 279.062C98.6745 281.615 99.1172 284.479 99.1172 287.656V293.008H64.5859V284.766H86.2656V283.75C86.2917 282.344 86.0443 281.146 85.5234 280.156C85.0286 279.167 84.2995 278.411 83.3359 277.891C82.3724 277.37 81.2005 277.109 79.8203 277.109C78.388 277.109 77.2031 277.422 76.2656 278.047C75.3542 278.672 74.638 279.531 74.1172 280.625C73.6224 281.693 73.2708 282.93 73.0625 284.336C72.8542 285.742 72.75 287.227 72.75 288.789V290.273C72.75 291.836 72.9583 293.255 73.375 294.531C73.8177 295.807 74.4427 296.901 75.25 297.812C76.0833 298.698 77.0729 299.388 78.2188 299.883C79.3906 300.378 80.7188 300.625 82.2031 300.625C84 300.625 85.7708 300.286 87.5156 299.609C89.2604 298.932 90.7578 297.812 92.0078 296.25L97.9844 303.359C97.125 304.583 95.901 305.768 94.3125 306.914C92.75 308.06 90.875 308.997 88.6875 309.727C86.5 310.43 84.0521 310.781 81.3438 310.781Z" fill="black"/>
<path d="M117.75 275.859V326.25H104.586V267.734H116.852L117.75 275.859ZM143.688 288.359V289.18C143.688 292.253 143.336 295.104 142.633 297.734C141.93 300.365 140.888 302.656 139.508 304.609C138.128 306.562 136.409 308.086 134.352 309.18C132.32 310.247 129.964 310.781 127.281 310.781C124.755 310.781 122.581 310.221 120.758 309.102C118.935 307.982 117.411 306.432 116.188 304.453C114.964 302.474 113.974 300.208 113.219 297.656C112.464 295.104 111.865 292.409 111.422 289.57V288.516C111.865 285.469 112.464 282.643 113.219 280.039C113.974 277.409 114.964 275.117 116.188 273.164C117.411 271.211 118.922 269.688 120.719 268.594C122.542 267.5 124.716 266.953 127.242 266.953C129.924 266.953 132.281 267.461 134.312 268.477C136.37 269.492 138.089 270.951 139.469 272.852C140.875 274.727 141.93 276.979 142.633 279.609C143.336 282.24 143.688 285.156 143.688 288.359ZM130.523 289.18V288.359C130.523 286.719 130.406 285.221 130.172 283.867C129.938 282.487 129.56 281.289 129.039 280.273C128.544 279.258 127.88 278.477 127.047 277.93C126.214 277.383 125.185 277.109 123.961 277.109C122.555 277.109 121.37 277.331 120.406 277.773C119.469 278.19 118.714 278.841 118.141 279.727C117.594 280.586 117.203 281.667 116.969 282.969C116.76 284.245 116.669 285.742 116.695 287.461V290.664C116.643 292.643 116.839 294.388 117.281 295.898C117.724 297.383 118.492 298.542 119.586 299.375C120.68 300.208 122.164 300.625 124.039 300.625C125.289 300.625 126.331 300.339 127.164 299.766C127.997 299.167 128.661 298.346 129.156 297.305C129.651 296.237 130.003 295.013 130.211 293.633C130.419 292.253 130.523 290.768 130.523 289.18Z" fill="black"/>
<path d="M170.016 310.781C166.578 310.781 163.505 310.247 160.797 309.18C158.089 308.086 155.797 306.589 153.922 304.688C152.073 302.786 150.654 300.599 149.664 298.125C148.701 295.651 148.219 293.034 148.219 290.273V288.789C148.219 285.69 148.648 282.826 149.508 280.195C150.367 277.539 151.643 275.221 153.336 273.242C155.029 271.263 157.151 269.727 159.703 268.633C162.255 267.513 165.224 266.953 168.609 266.953C171.604 266.953 174.286 267.435 176.656 268.398C179.026 269.362 181.031 270.742 182.672 272.539C184.339 274.336 185.602 276.51 186.461 279.062C187.346 281.615 187.789 284.479 187.789 287.656V293.008H153.258V284.766H174.938V283.75C174.964 282.344 174.716 281.146 174.195 280.156C173.701 279.167 172.971 278.411 172.008 277.891C171.044 277.37 169.872 277.109 168.492 277.109C167.06 277.109 165.875 277.422 164.938 278.047C164.026 278.672 163.31 279.531 162.789 280.625C162.294 281.693 161.943 282.93 161.734 284.336C161.526 285.742 161.422 287.227 161.422 288.789V290.273C161.422 291.836 161.63 293.255 162.047 294.531C162.49 295.807 163.115 296.901 163.922 297.812C164.755 298.698 165.745 299.388 166.891 299.883C168.062 300.378 169.391 300.625 170.875 300.625C172.672 300.625 174.443 300.286 176.188 299.609C177.932 298.932 179.43 297.812 180.68 296.25L186.656 303.359C185.797 304.583 184.573 305.768 182.984 306.914C181.422 308.06 179.547 308.997 177.359 309.727C175.172 310.43 172.724 310.781 170.016 310.781Z" fill="black"/>
<path d="M214.898 292.773H201.93L201.852 284.648H212.633C213.701 284.648 214.547 284.531 215.172 284.297C215.823 284.062 216.279 283.711 216.539 283.242C216.826 282.747 216.969 282.161 216.969 281.484C216.969 280.807 216.865 280.234 216.656 279.766C216.474 279.297 216.174 278.919 215.758 278.633C215.367 278.346 214.872 278.138 214.273 278.008C213.674 277.878 212.971 277.812 212.164 277.812H207.203V310H194.039V267.734H212.164C214.951 267.734 217.451 267.982 219.664 268.477C221.878 268.945 223.753 269.674 225.289 270.664C226.852 271.628 228.049 272.852 228.883 274.336C229.716 275.82 230.133 277.565 230.133 279.57C230.133 280.872 229.82 282.096 229.195 283.242C228.57 284.388 227.646 285.404 226.422 286.289C225.224 287.174 223.74 287.904 221.969 288.477C220.198 289.023 218.167 289.362 215.875 289.492L214.898 292.773ZM214.898 310H199.078L203.102 299.922H214.898C215.992 299.922 216.878 299.792 217.555 299.531C218.232 299.271 218.727 298.88 219.039 298.359C219.352 297.839 219.508 297.201 219.508 296.445C219.508 295.716 219.378 295.078 219.117 294.531C218.857 293.984 218.388 293.555 217.711 293.242C217.06 292.93 216.122 292.773 214.898 292.773H204.586L204.664 284.648H215.797L218.609 287.969C221.891 288.151 224.56 288.711 226.617 289.648C228.701 290.586 230.224 291.771 231.188 293.203C232.177 294.635 232.672 296.211 232.672 297.93C232.672 299.935 232.281 301.693 231.5 303.203C230.745 304.714 229.612 305.977 228.102 306.992C226.591 307.982 224.729 308.737 222.516 309.258C220.328 309.753 217.789 310 214.898 310Z" fill="black"/>
<path d="M236.422 289.297V288.477C236.422 285.378 236.865 282.526 237.75 279.922C238.635 277.292 239.938 275.013 241.656 273.086C243.375 271.159 245.497 269.661 248.023 268.594C250.549 267.5 253.466 266.953 256.773 266.953C260.107 266.953 263.036 267.5 265.562 268.594C268.115 269.661 270.25 271.159 271.969 273.086C273.688 275.013 274.99 277.292 275.875 279.922C276.76 282.526 277.203 285.378 277.203 288.477V289.297C277.203 292.37 276.76 295.221 275.875 297.852C274.99 300.456 273.688 302.734 271.969 304.688C270.25 306.615 268.128 308.112 265.602 309.18C263.076 310.247 260.159 310.781 256.852 310.781C253.544 310.781 250.615 310.247 248.062 309.18C245.51 308.112 243.375 306.615 241.656 304.688C239.938 302.734 238.635 300.456 237.75 297.852C236.865 295.221 236.422 292.37 236.422 289.297ZM249.586 288.477V289.297C249.586 290.885 249.703 292.37 249.938 293.75C250.172 295.13 250.562 296.341 251.109 297.383C251.656 298.398 252.398 299.193 253.336 299.766C254.273 300.339 255.445 300.625 256.852 300.625C258.232 300.625 259.378 300.339 260.289 299.766C261.227 299.193 261.969 298.398 262.516 297.383C263.062 296.341 263.453 295.13 263.688 293.75C263.922 292.37 264.039 290.885 264.039 289.297V288.477C264.039 286.94 263.922 285.495 263.688 284.141C263.453 282.76 263.062 281.549 262.516 280.508C261.969 279.44 261.227 278.607 260.289 278.008C259.352 277.409 258.18 277.109 256.773 277.109C255.393 277.109 254.234 277.409 253.297 278.008C252.385 278.607 251.656 279.44 251.109 280.508C250.562 281.549 250.172 282.76 249.938 284.141C249.703 285.495 249.586 286.94 249.586 288.477Z" fill="black"/>
<path d="M287.984 267.734H301.148L300.953 281.055C300.875 285.846 300.315 289.961 299.273 293.398C298.258 296.81 296.878 299.661 295.133 301.953C293.388 304.219 291.383 306.003 289.117 307.305C286.878 308.581 284.508 309.479 282.008 310H280.602L280.328 300L281.344 299.844C282.906 298.281 284.117 296.797 284.977 295.391C285.862 293.958 286.487 292.526 286.852 291.094C287.242 289.661 287.49 288.138 287.594 286.523C287.698 284.883 287.763 283.06 287.789 281.055L287.984 267.734ZM291.656 267.734H320.875V310H307.75V277.891H291.656V267.734ZM277.594 299.844H327.203V322.812H314.039V310H291.109V322.812H277.594V299.844Z" fill="black"/>
<path d="M340.523 279.336H352.555C356.617 279.336 360.094 279.987 362.984 281.289C365.901 282.565 368.141 284.375 369.703 286.719C371.266 289.036 372.047 291.745 372.047 294.844C372.047 297.057 371.604 299.102 370.719 300.977C369.833 302.826 368.544 304.427 366.852 305.781C365.185 307.109 363.141 308.151 360.719 308.906C358.323 309.635 355.602 310 352.555 310H332.633V267.734H345.836V299.922H352.555C354.065 299.922 355.276 299.688 356.188 299.219C357.125 298.75 357.815 298.125 358.258 297.344C358.701 296.562 358.922 295.703 358.922 294.766C358.922 293.724 358.701 292.812 358.258 292.031C357.815 291.224 357.125 290.599 356.188 290.156C355.276 289.688 354.065 289.453 352.555 289.453H340.523V279.336ZM391.539 267.734V310H378.336V267.734H391.539Z" fill="black"/>
<path d="M434.195 253.125V310H420.484V253.125H434.195ZM468.141 253.125L446.109 281.953L433.219 296.055L430.719 283.477L438.961 270.977L451.227 253.125H468.141ZM451.93 310L437.242 284.375L447.906 276.523L468.141 310H451.93Z" fill="black"/>
<path d="M492.984 299.375V281.953C492.984 280.755 492.815 279.727 492.477 278.867C492.138 278.008 491.604 277.344 490.875 276.875C490.146 276.38 489.169 276.133 487.945 276.133C486.956 276.133 486.109 276.302 485.406 276.641C484.703 276.979 484.169 277.487 483.805 278.164C483.44 278.841 483.258 279.701 483.258 280.742H470.094C470.094 278.789 470.523 276.979 471.383 275.312C472.268 273.62 473.518 272.148 475.133 270.898C476.773 269.648 478.727 268.685 480.992 268.008C483.284 267.305 485.836 266.953 488.648 266.953C492.008 266.953 495.003 267.513 497.633 268.633C500.289 269.753 502.385 271.432 503.922 273.672C505.458 275.885 506.227 278.672 506.227 282.031V299.336C506.227 302.096 506.383 304.193 506.695 305.625C507.008 307.031 507.451 308.268 508.023 309.336V310H494.82C494.195 308.698 493.727 307.109 493.414 305.234C493.128 303.333 492.984 301.38 492.984 299.375ZM494.586 284.18L494.664 291.211H488.844C487.62 291.211 486.578 291.38 485.719 291.719C484.885 292.057 484.208 292.526 483.688 293.125C483.193 293.698 482.828 294.349 482.594 295.078C482.385 295.807 482.281 296.576 482.281 297.383C482.281 298.164 482.464 298.867 482.828 299.492C483.219 300.091 483.74 300.56 484.391 300.898C485.042 301.237 485.771 301.406 486.578 301.406C488.036 301.406 489.273 301.133 490.289 300.586C491.331 300.013 492.125 299.323 492.672 298.516C493.219 297.708 493.492 296.953 493.492 296.25L496.383 301.641C495.862 302.682 495.263 303.737 494.586 304.805C493.935 305.872 493.115 306.862 492.125 307.773C491.161 308.659 489.977 309.388 488.57 309.961C487.164 310.508 485.458 310.781 483.453 310.781C480.849 310.781 478.453 310.247 476.266 309.18C474.104 308.112 472.372 306.628 471.07 304.727C469.768 302.799 469.117 300.586 469.117 298.086C469.117 295.898 469.508 293.945 470.289 292.227C471.096 290.508 472.307 289.049 473.922 287.852C475.536 286.654 477.594 285.742 480.094 285.117C482.594 284.492 485.536 284.18 488.922 284.18H494.586Z" fill="black"/>
<path d="M535.68 298.125C535.68 297.396 535.432 296.771 534.938 296.25C534.469 295.703 533.635 295.208 532.438 294.766C531.24 294.297 529.56 293.828 527.398 293.359C525.341 292.917 523.401 292.331 521.578 291.602C519.781 290.872 518.206 289.987 516.852 288.945C515.497 287.904 514.43 286.667 513.648 285.234C512.893 283.802 512.516 282.161 512.516 280.312C512.516 278.516 512.893 276.823 513.648 275.234C514.43 273.62 515.562 272.201 517.047 270.977C518.557 269.727 520.393 268.75 522.555 268.047C524.716 267.318 527.177 266.953 529.938 266.953C533.74 266.953 537.021 267.539 539.781 268.711C542.542 269.857 544.664 271.471 546.148 273.555C547.659 275.612 548.414 277.995 548.414 280.703H535.25C535.25 279.635 535.068 278.724 534.703 277.969C534.365 277.214 533.805 276.641 533.023 276.25C532.242 275.833 531.201 275.625 529.898 275.625C528.987 275.625 528.154 275.794 527.398 276.133C526.669 276.471 526.083 276.94 525.641 277.539C525.198 278.138 524.977 278.841 524.977 279.648C524.977 280.221 525.107 280.742 525.367 281.211C525.654 281.654 526.083 282.07 526.656 282.461C527.229 282.826 527.958 283.164 528.844 283.477C529.729 283.763 530.797 284.023 532.047 284.258C534.885 284.779 537.542 285.521 540.016 286.484C542.49 287.448 544.495 288.815 546.031 290.586C547.594 292.357 548.375 294.74 548.375 297.734C548.375 299.609 547.945 301.341 547.086 302.93C546.227 304.492 544.99 305.872 543.375 307.07C541.76 308.242 539.82 309.154 537.555 309.805C535.289 310.456 532.737 310.781 529.898 310.781C525.862 310.781 522.451 310.065 519.664 308.633C516.878 307.174 514.768 305.352 513.336 303.164C511.93 300.951 511.227 298.711 511.227 296.445H523.492C523.544 297.747 523.857 298.815 524.43 299.648C525.029 300.482 525.823 301.094 526.812 301.484C527.802 301.875 528.948 302.07 530.25 302.07C531.448 302.07 532.438 301.901 533.219 301.562C534.026 301.224 534.638 300.768 535.055 300.195C535.471 299.596 535.68 298.906 535.68 298.125Z" fill="black"/>
<path d="M567.828 275.859V326.25H554.664V267.734H566.93L567.828 275.859ZM593.766 288.359V289.18C593.766 292.253 593.414 295.104 592.711 297.734C592.008 300.365 590.966 302.656 589.586 304.609C588.206 306.562 586.487 308.086 584.43 309.18C582.398 310.247 580.042 310.781 577.359 310.781C574.833 310.781 572.659 310.221 570.836 309.102C569.013 307.982 567.49 306.432 566.266 304.453C565.042 302.474 564.052 300.208 563.297 297.656C562.542 295.104 561.943 292.409 561.5 289.57V288.516C561.943 285.469 562.542 282.643 563.297 280.039C564.052 277.409 565.042 275.117 566.266 273.164C567.49 271.211 569 269.688 570.797 268.594C572.62 267.5 574.794 266.953 577.32 266.953C580.003 266.953 582.359 267.461 584.391 268.477C586.448 269.492 588.167 270.951 589.547 272.852C590.953 274.727 592.008 276.979 592.711 279.609C593.414 282.24 593.766 285.156 593.766 288.359ZM580.602 289.18V288.359C580.602 286.719 580.484 285.221 580.25 283.867C580.016 282.487 579.638 281.289 579.117 280.273C578.622 279.258 577.958 278.477 577.125 277.93C576.292 277.383 575.263 277.109 574.039 277.109C572.633 277.109 571.448 277.331 570.484 277.773C569.547 278.19 568.792 278.841 568.219 279.727C567.672 280.586 567.281 281.667 567.047 282.969C566.839 284.245 566.747 285.742 566.773 287.461V290.664C566.721 292.643 566.917 294.388 567.359 295.898C567.802 297.383 568.57 298.542 569.664 299.375C570.758 300.208 572.242 300.625 574.117 300.625C575.367 300.625 576.409 300.339 577.242 299.766C578.076 299.167 578.74 298.346 579.234 297.305C579.729 296.237 580.081 295.013 580.289 293.633C580.497 292.253 580.602 290.768 580.602 289.18Z" fill="black"/>
<path d="M613.531 267.734V310H600.328V267.734H613.531ZM599.547 256.836C599.547 254.961 600.224 253.424 601.578 252.227C602.932 251.029 604.69 250.43 606.852 250.43C609.013 250.43 610.771 251.029 612.125 252.227C613.479 253.424 614.156 254.961 614.156 256.836C614.156 258.711 613.479 260.247 612.125 261.445C610.771 262.643 609.013 263.242 606.852 263.242C604.69 263.242 602.932 262.643 601.578 261.445C600.224 260.247 599.547 258.711 599.547 256.836Z" fill="black"/>
<path d="M622.516 303.828C622.516 301.953 623.193 300.391 624.547 299.141C625.901 297.865 627.646 297.227 629.781 297.227C631.943 297.227 633.688 297.865 635.016 299.141C636.37 300.391 637.047 301.953 637.047 303.828C637.047 305.703 636.37 307.279 635.016 308.555C633.688 309.805 631.943 310.43 629.781 310.43C627.646 310.43 625.901 309.805 624.547 308.555C623.193 307.279 622.516 305.703 622.516 303.828Z" fill="black"/>
<path d="M659.156 249.961V310H645.992V249.961H659.156ZM686.188 267.734L667.828 289.258L658.219 298.867L652.477 290.508L660.484 280.078L670.406 267.734H686.188ZM672.086 310L660.797 290.742L670.523 283.828L687.164 310H672.086Z" fill="black"/>
<path d="M724.391 299.844V310H691.656V299.844H724.391ZM724 274.844L697.555 310H688.531V302.656L714.938 267.734H724V274.844ZM719.664 267.734V277.891H689.312V267.734H719.664Z" fill="black"/>
</svg>
