<svg width="636" height="335" viewBox="0 0 636 335" fill="none" xmlns="http://www.w3.org/2000/svg">
<path d="M433.093 188.94C433.045 189.34 433.021 189.743 433.021 190.146C433.021 196.14 437.857 201 443.822 201C449.786 201 454.622 196.14 454.622 190.146C454.622 189.743 454.598 189.34 454.55 188.94" fill="#C4C4C4"/>
<path d="M400.595 188.94C400.546 189.34 400.522 189.743 400.523 190.146C400.523 196.14 405.358 201 411.323 201C417.288 201 422.123 196.14 422.123 190.146C422.124 189.743 422.1 189.34 422.051 188.94" fill="#C4C4C4"/>
<path fill-rule="evenodd" clip-rule="evenodd" d="M477.228 166.326L477.271 166.326C476.773 164.647 476.023 163.054 475.046 161.603L471.521 156.277L469.871 153.764L468.196 151.252L453.197 128.64L451.547 126.127L449.872 123.615L448.397 121.404C445.147 116.508 439.678 113.566 433.822 113.565L281.06 113.565C278.303 113.573 242.008 115.818 242 118.59L242.832 165.161L299.622 165.444L303.33 179.471C292.413 179.097 219.052 188.939 335.524 188.939H460.496C466.023 188.941 471.226 186.318 474.53 181.864C477.834 177.411 478.85 171.651 477.27 166.327L477.228 166.326Z" fill="#DDDDDD"/>
<path d="M466.5 148.74L430.565 148.74C428.047 148.733 426.008 146.774 426 144.355V129.006C426.008 126.587 428.047 124.628 430.565 124.62L450.5 124.62L451.886 126.63L465 146.548L466.5 148.74Z" fill="white"/>
<path d="M410.909 124.62H393.091C390.279 124.62 388 126.583 388 129.005V144.355C388 146.777 390.279 148.74 393.091 148.74H410.909C413.721 148.74 416 146.777 416 144.355V129.005C416 126.583 413.721 124.62 410.909 124.62Z" fill="white"/>
<path d="M372.909 124.62H355.091C352.279 124.62 350 126.583 350 129.005V144.355C350 146.777 352.279 148.74 355.091 148.74H372.909C375.721 148.74 378 146.777 378 144.355V129.005C378 126.583 375.721 124.62 372.909 124.62Z" fill="white"/>
<path d="M328.066 124.551H310.567C307.805 124.551 305.567 126.801 305.567 129.576V147.163C305.567 149.938 307.805 152.188 310.567 152.188H328.066C330.828 152.188 333.066 149.938 333.066 147.163V129.576C333.066 126.801 330.828 124.551 328.066 124.551Z" fill="white"/>
<path d="M375.523 165.321V170.345C375.511 174.503 372.16 177.87 368.023 177.883H350.524C346.387 177.87 343.036 174.503 343.024 170.345V165.321H348.024V170.345C348.024 171.733 349.143 172.858 350.524 172.858H368.023C369.404 172.858 370.523 171.733 370.523 170.345V165.321H375.523Z" fill="#DDDDDD"/>
<path fill-rule="evenodd" clip-rule="evenodd" d="M309.143 127.648C309.91 123.297 307.005 119.148 302.653 118.381L191.37 98.7583C187.019 97.9911 182.87 100.896 182.103 105.248L180.052 116.877C179.416 120.481 181.592 123.926 183.748 126.884C185.575 129.39 186.42 132.589 185.843 135.862C185.266 139.136 183.378 141.853 180.804 143.583C177.766 145.624 174.543 148.118 173.908 151.722L171.857 163.351C171.09 167.702 173.995 171.852 178.347 172.619L289.63 192.241C293.981 193.008 298.13 190.103 298.897 185.752L309.143 127.648Z" fill="#C4C4C4"/>
<path d="M300.216 0H284.469L309.403 44.5045H336.961L300.216 0Z" fill="#C4C4C4"/>
<mask id="mask0_6840_111995" style="mask-type:alpha" maskUnits="userSpaceOnUse" x="217" y="22" width="188" height="39">
<path d="M217.275 25.6582L232.253 58.8247C232.577 59.5411 233.29 60.0016 234.076 60.0016H401.671C403.766 60.0016 405.379 57.8585 404.68 55.884C402.893 50.8368 398.901 42.95 387.446 37.2221C377.664 32.3314 362.668 32.826 353.876 32.4264L244.774 36.0231L232.785 22.835H219.098C217.645 22.835 216.677 24.3345 217.275 25.6582Z" fill="#DDDDDD"/>
</mask>
<g mask="url(#mask0_6840_111995)">
<rect x="201.165" y="15.9746" width="225.946" height="58.1982" fill="#DDDDDD"/>
<rect x="380.325" y="38.7984" width="19.3994" height="5.70571" rx="2.85285" fill="white"/>
</g>
<path d="M272.032 89.0494L313.724 46.868H350.146L288.358 89.0494H272.032Z" fill="#DDDDDD"/>
<path fill-rule="evenodd" clip-rule="evenodd" d="M317.563 118.421C317.101 114.027 313.165 110.839 308.771 111.301L196.39 123.113C191.996 123.575 188.808 127.511 189.27 131.905L190.504 143.65C190.887 147.289 193.928 150.001 196.815 152.25C199.263 154.155 200.957 156.997 201.304 160.303C201.652 163.609 200.586 166.741 198.588 169.114C196.231 171.913 193.82 175.198 194.203 178.838L195.437 190.582C195.899 194.976 199.835 198.164 204.229 197.702L316.61 185.89C321.004 185.429 324.192 181.492 323.73 177.098L317.563 118.421Z" fill="#DDDDDD"/>
<rect x="223.974" y="127.252" width="7" height="17" rx="3" transform="rotate(-6 223.974 127.252)" fill="white"/>
<rect x="226.273" y="149.132" width="7" height="17" rx="3" transform="rotate(-6 226.273 149.132)" fill="white"/>
<rect x="228.573" y="171.011" width="7" height="17" rx="3" transform="rotate(-6 228.573 171.011)" fill="white"/>
<g clip-path="url(#clip0_6840_111995)">
<rect x="256" y="104.52" width="124" height="96.48" rx="16" fill="#F14635"/>
<mask id="path-21-outside-1_6840_111995" maskUnits="userSpaceOnUse" x="289" y="121.61" width="58" height="63" fill="black">
<rect fill="white" x="289" y="121.61" width="58" height="63"/>
<path fill-rule="evenodd" clip-rule="evenodd" d="M322.666 127.29H313.332C312.044 127.29 310.999 128.338 310.999 129.63V131.97H324.999V129.63C324.999 128.338 323.954 127.29 322.666 127.29ZM313.332 122.61C309.466 122.61 306.332 125.753 306.332 129.63V131.972H299.333C294.179 131.972 290 136.163 290 141.332V167.074C290 171.435 292.974 175.1 297 176.139V176.433C297 180.31 300.134 183.454 304 183.454C307.866 183.454 310.999 180.311 311 176.434H325C325.001 180.311 328.134 183.454 332 183.454C335.866 183.454 339 180.31 339 176.433V176.139C343.026 175.1 346 171.435 346 167.074V141.332C346 136.163 341.821 131.972 336.667 131.972H329.666V129.63C329.666 125.753 326.532 122.61 322.666 122.61H313.332ZM329.667 176.434H334.333C334.333 177.726 333.288 178.773 332 178.773C330.712 178.773 329.667 177.726 329.667 176.434ZM336.774 171.753C339.302 171.696 341.333 169.623 341.333 167.074V141.332C341.333 138.748 339.244 136.652 336.667 136.652H299.333C296.756 136.652 294.667 138.748 294.667 141.332V167.074C294.667 169.623 296.698 171.696 299.226 171.753H311V171.754H325V171.753H336.774ZM304 178.773C302.712 178.773 301.667 177.726 301.667 176.434H306.333C306.333 177.726 305.288 178.773 304 178.773ZM308.667 148.353C308.667 147.06 307.622 146.013 306.333 146.013C305.045 146.013 304 147.06 304 148.353C304 156.107 310.268 162.393 318 162.393C325.732 162.393 332 156.107 332 148.353C332 147.06 330.955 146.013 329.667 146.013C328.378 146.013 327.333 147.06 327.333 148.353C327.333 153.522 323.155 157.713 318 157.713C312.845 157.713 308.667 153.522 308.667 148.353Z"/>
</mask>
<path fill-rule="evenodd" clip-rule="evenodd" d="M322.666 127.29H313.332C312.044 127.29 310.999 128.338 310.999 129.63V131.97H324.999V129.63C324.999 128.338 323.954 127.29 322.666 127.29ZM313.332 122.61C309.466 122.61 306.332 125.753 306.332 129.63V131.972H299.333C294.179 131.972 290 136.163 290 141.332V167.074C290 171.435 292.974 175.1 297 176.139V176.433C297 180.31 300.134 183.454 304 183.454C307.866 183.454 310.999 180.311 311 176.434H325C325.001 180.311 328.134 183.454 332 183.454C335.866 183.454 339 180.31 339 176.433V176.139C343.026 175.1 346 171.435 346 167.074V141.332C346 136.163 341.821 131.972 336.667 131.972H329.666V129.63C329.666 125.753 326.532 122.61 322.666 122.61H313.332ZM329.667 176.434H334.333C334.333 177.726 333.288 178.773 332 178.773C330.712 178.773 329.667 177.726 329.667 176.434ZM336.774 171.753C339.302 171.696 341.333 169.623 341.333 167.074V141.332C341.333 138.748 339.244 136.652 336.667 136.652H299.333C296.756 136.652 294.667 138.748 294.667 141.332V167.074C294.667 169.623 296.698 171.696 299.226 171.753H311V171.754H325V171.753H336.774ZM304 178.773C302.712 178.773 301.667 177.726 301.667 176.434H306.333C306.333 177.726 305.288 178.773 304 178.773ZM308.667 148.353C308.667 147.06 307.622 146.013 306.333 146.013C305.045 146.013 304 147.06 304 148.353C304 156.107 310.268 162.393 318 162.393C325.732 162.393 332 156.107 332 148.353C332 147.06 330.955 146.013 329.667 146.013C328.378 146.013 327.333 147.06 327.333 148.353C327.333 153.522 323.155 157.713 318 157.713C312.845 157.713 308.667 153.522 308.667 148.353Z" fill="white"/>
<path d="M310.999 131.97H310.499V132.47H310.999V131.97ZM324.999 131.97V132.47H325.499V131.97H324.999ZM306.332 131.972V132.472H306.832V131.972H306.332ZM297 176.139H297.5V175.752L297.125 175.655L297 176.139ZM311 176.434V175.934H310.5L310.5 176.434L311 176.434ZM325 176.434L325.5 176.434L325.5 175.934H325V176.434ZM339 176.139L338.875 175.655L338.5 175.752V176.139H339ZM329.666 131.972H329.166V132.472H329.666V131.972ZM334.333 176.434L334.833 176.435L334.834 175.934H334.333V176.434ZM329.667 176.434V175.934H329.166L329.167 176.435L329.667 176.434ZM336.774 171.753V172.253L336.785 172.253L336.774 171.753ZM299.226 171.753L299.215 172.253H299.226V171.753ZM311 171.753H311.5V171.253H311V171.753ZM311 171.754H310.5V172.254H311V171.754ZM325 171.754V172.254H325.5V171.754H325ZM325 171.753V171.253H324.5V171.753H325ZM301.667 176.434V175.934H301.166L301.167 176.435L301.667 176.434ZM306.333 176.434L306.833 176.435L306.834 175.934H306.333V176.434ZM313.332 127.79H322.666V126.79H313.332V127.79ZM311.499 129.63C311.499 128.613 312.321 127.79 313.332 127.79V126.79C311.766 126.79 310.499 128.063 310.499 129.63H311.499ZM311.499 131.97V129.63H310.499V131.97H311.499ZM324.999 131.47H310.999V132.47H324.999V131.47ZM324.499 129.63V131.97H325.499V129.63H324.499ZM322.666 127.79C323.677 127.79 324.499 128.613 324.499 129.63H325.499C325.499 128.063 324.232 126.79 322.666 126.79V127.79ZM306.832 129.63C306.832 126.028 309.744 123.11 313.332 123.11V122.11C309.189 122.11 305.832 125.478 305.832 129.63H306.832ZM306.832 131.972V129.63H305.832V131.972H306.832ZM299.333 132.472H306.332V131.472H299.333V132.472ZM290.5 141.332C290.5 136.438 294.456 132.472 299.333 132.472V131.472C293.901 131.472 289.5 135.888 289.5 141.332H290.5ZM290.5 167.074V141.332H289.5V167.074H290.5ZM297.125 175.655C293.316 174.672 290.5 171.203 290.5 167.074H289.5C289.5 171.668 292.633 175.529 296.875 176.624L297.125 175.655ZM297.5 176.433V176.139H296.5V176.433H297.5ZM304 182.954C300.412 182.954 297.5 180.036 297.5 176.433H296.5C296.5 180.585 299.856 183.954 304 183.954V182.954ZM310.5 176.434C310.499 180.036 307.588 182.954 304 182.954V183.954C308.143 183.954 311.499 180.586 311.5 176.434L310.5 176.434ZM325 175.934H311V176.934H325V175.934ZM324.5 176.434C324.501 180.586 327.857 183.954 332 183.954V182.954C328.412 182.954 325.501 180.036 325.5 176.434L324.5 176.434ZM332 183.954C336.144 183.954 339.5 180.585 339.5 176.433H338.5C338.5 180.036 335.588 182.954 332 182.954V183.954ZM339.5 176.433V176.139H338.5V176.433H339.5ZM345.5 167.074C345.5 171.203 342.684 174.672 338.875 175.655L339.125 176.624C343.367 175.529 346.5 171.668 346.5 167.074H345.5ZM345.5 141.332V167.074H346.5V141.332H345.5ZM336.667 132.472C341.544 132.472 345.5 136.438 345.5 141.332H346.5C346.5 135.888 342.099 131.472 336.667 131.472V132.472ZM329.666 132.472H336.667V131.472H329.666V132.472ZM329.166 129.63V131.972H330.166V129.63H329.166ZM322.666 123.11C326.254 123.11 329.166 126.028 329.166 129.63H330.166C330.166 125.478 326.809 122.11 322.666 122.11V123.11ZM313.332 123.11H322.666V122.11H313.332V123.11ZM334.333 175.934H329.667V176.934H334.333V175.934ZM332 179.273C333.566 179.273 334.833 178.001 334.833 176.435L333.833 176.434C333.833 177.451 333.011 178.273 332 178.273V179.273ZM329.167 176.435C329.167 178.001 330.434 179.273 332 179.273V178.273C330.989 178.273 330.167 177.451 330.167 176.434L329.167 176.435ZM340.833 167.074C340.833 169.352 339.018 171.202 336.763 171.253L336.785 172.253C339.585 172.19 341.833 169.894 341.833 167.074H340.833ZM340.833 141.332V167.074H341.833V141.332H340.833ZM336.667 137.152C338.966 137.152 340.833 139.022 340.833 141.332H341.833C341.833 138.473 339.522 136.152 336.667 136.152V137.152ZM299.333 137.152H336.667V136.152H299.333V137.152ZM295.167 141.332C295.167 139.022 297.034 137.152 299.333 137.152V136.152C296.478 136.152 294.167 138.473 294.167 141.332H295.167ZM295.167 167.074V141.332H294.167V167.074H295.167ZM299.237 171.253C296.982 171.202 295.167 169.352 295.167 167.074H294.167C294.167 169.894 296.415 172.19 299.215 172.253L299.237 171.253ZM311 171.253H299.226V172.253H311V171.253ZM311.5 171.754V171.753H310.5V171.754H311.5ZM325 171.254H311V172.254H325V171.254ZM324.5 171.753V171.754H325.5V171.753H324.5ZM336.774 171.253H325V172.253H336.774V171.253ZM301.167 176.435C301.167 178.001 302.434 179.273 304 179.273V178.273C302.989 178.273 302.167 177.451 302.167 176.434L301.167 176.435ZM306.333 175.934H301.667V176.934H306.333V175.934ZM304 179.273C305.566 179.273 306.833 178.001 306.833 176.435L305.833 176.434C305.833 177.451 305.011 178.273 304 178.273V179.273ZM306.333 146.513C307.344 146.513 308.167 147.335 308.167 148.353H309.167C309.167 146.785 307.9 145.513 306.333 145.513V146.513ZM304.5 148.353C304.5 147.335 305.322 146.513 306.333 146.513V145.513C304.767 145.513 303.5 146.785 303.5 148.353H304.5ZM318 161.893C310.546 161.893 304.5 155.832 304.5 148.353H303.5C303.5 156.382 309.991 162.893 318 162.893V161.893ZM331.5 148.353C331.5 155.832 325.454 161.893 318 161.893V162.893C326.009 162.893 332.5 156.382 332.5 148.353H331.5ZM329.667 146.513C330.678 146.513 331.5 147.335 331.5 148.353H332.5C332.5 146.785 331.233 145.513 329.667 145.513V146.513ZM327.833 148.353C327.833 147.335 328.656 146.513 329.667 146.513V145.513C328.1 145.513 326.833 146.785 326.833 148.353H327.833ZM318 158.213C323.432 158.213 327.833 153.797 327.833 148.353H326.833C326.833 153.248 322.877 157.213 318 157.213V158.213ZM308.167 148.353C308.167 153.797 312.568 158.213 318 158.213V157.213C313.123 157.213 309.167 153.248 309.167 148.353H308.167Z" fill="white" mask="url(#path-21-outside-1_6840_111995)"/>
</g>
<path d="M113.703 258.125V315H99.9922V258.125H113.703ZM147.648 258.125L125.617 286.953L112.727 301.055L110.227 288.477L118.469 275.977L130.734 258.125H147.648ZM131.438 315L116.75 289.375L127.414 281.523L147.648 315H131.438Z" fill="black"/>
<path d="M172.492 304.375V286.953C172.492 285.755 172.323 284.727 171.984 283.867C171.646 283.008 171.112 282.344 170.383 281.875C169.654 281.38 168.677 281.133 167.453 281.133C166.464 281.133 165.617 281.302 164.914 281.641C164.211 281.979 163.677 282.487 163.312 283.164C162.948 283.841 162.766 284.701 162.766 285.742H149.602C149.602 283.789 150.031 281.979 150.891 280.312C151.776 278.62 153.026 277.148 154.641 275.898C156.281 274.648 158.234 273.685 160.5 273.008C162.792 272.305 165.344 271.953 168.156 271.953C171.516 271.953 174.51 272.513 177.141 273.633C179.797 274.753 181.893 276.432 183.43 278.672C184.966 280.885 185.734 283.672 185.734 287.031V304.336C185.734 307.096 185.891 309.193 186.203 310.625C186.516 312.031 186.958 313.268 187.531 314.336V315H174.328C173.703 313.698 173.234 312.109 172.922 310.234C172.635 308.333 172.492 306.38 172.492 304.375ZM174.094 289.18L174.172 296.211H168.352C167.128 296.211 166.086 296.38 165.227 296.719C164.393 297.057 163.716 297.526 163.195 298.125C162.701 298.698 162.336 299.349 162.102 300.078C161.893 300.807 161.789 301.576 161.789 302.383C161.789 303.164 161.971 303.867 162.336 304.492C162.727 305.091 163.247 305.56 163.898 305.898C164.549 306.237 165.279 306.406 166.086 306.406C167.544 306.406 168.781 306.133 169.797 305.586C170.839 305.013 171.633 304.323 172.18 303.516C172.727 302.708 173 301.953 173 301.25L175.891 306.641C175.37 307.682 174.771 308.737 174.094 309.805C173.443 310.872 172.622 311.862 171.633 312.773C170.669 313.659 169.484 314.388 168.078 314.961C166.672 315.508 164.966 315.781 162.961 315.781C160.357 315.781 157.961 315.247 155.773 314.18C153.612 313.112 151.88 311.628 150.578 309.727C149.276 307.799 148.625 305.586 148.625 303.086C148.625 300.898 149.016 298.945 149.797 297.227C150.604 295.508 151.815 294.049 153.43 292.852C155.044 291.654 157.102 290.742 159.602 290.117C162.102 289.492 165.044 289.18 168.43 289.18H174.094Z" fill="black"/>
<path d="M215.188 303.125C215.188 302.396 214.94 301.771 214.445 301.25C213.977 300.703 213.143 300.208 211.945 299.766C210.747 299.297 209.068 298.828 206.906 298.359C204.849 297.917 202.909 297.331 201.086 296.602C199.289 295.872 197.714 294.987 196.359 293.945C195.005 292.904 193.938 291.667 193.156 290.234C192.401 288.802 192.023 287.161 192.023 285.312C192.023 283.516 192.401 281.823 193.156 280.234C193.938 278.62 195.07 277.201 196.555 275.977C198.065 274.727 199.901 273.75 202.062 273.047C204.224 272.318 206.685 271.953 209.445 271.953C213.247 271.953 216.529 272.539 219.289 273.711C222.049 274.857 224.172 276.471 225.656 278.555C227.167 280.612 227.922 282.995 227.922 285.703H214.758C214.758 284.635 214.576 283.724 214.211 282.969C213.872 282.214 213.312 281.641 212.531 281.25C211.75 280.833 210.708 280.625 209.406 280.625C208.495 280.625 207.661 280.794 206.906 281.133C206.177 281.471 205.591 281.94 205.148 282.539C204.706 283.138 204.484 283.841 204.484 284.648C204.484 285.221 204.615 285.742 204.875 286.211C205.161 286.654 205.591 287.07 206.164 287.461C206.737 287.826 207.466 288.164 208.352 288.477C209.237 288.763 210.305 289.023 211.555 289.258C214.393 289.779 217.049 290.521 219.523 291.484C221.997 292.448 224.003 293.815 225.539 295.586C227.102 297.357 227.883 299.74 227.883 302.734C227.883 304.609 227.453 306.341 226.594 307.93C225.734 309.492 224.497 310.872 222.883 312.07C221.268 313.242 219.328 314.154 217.062 314.805C214.797 315.456 212.245 315.781 209.406 315.781C205.37 315.781 201.958 315.065 199.172 313.633C196.385 312.174 194.276 310.352 192.844 308.164C191.438 305.951 190.734 303.711 190.734 301.445H203C203.052 302.747 203.365 303.815 203.938 304.648C204.536 305.482 205.331 306.094 206.32 306.484C207.31 306.875 208.456 307.07 209.758 307.07C210.956 307.07 211.945 306.901 212.727 306.562C213.534 306.224 214.146 305.768 214.562 305.195C214.979 304.596 215.188 303.906 215.188 303.125Z" fill="black"/>
<path d="M247.336 280.859V331.25H234.172V272.734H246.438L247.336 280.859ZM273.273 293.359V294.18C273.273 297.253 272.922 300.104 272.219 302.734C271.516 305.365 270.474 307.656 269.094 309.609C267.714 311.562 265.995 313.086 263.938 314.18C261.906 315.247 259.549 315.781 256.867 315.781C254.341 315.781 252.167 315.221 250.344 314.102C248.521 312.982 246.997 311.432 245.773 309.453C244.549 307.474 243.56 305.208 242.805 302.656C242.049 300.104 241.451 297.409 241.008 294.57V293.516C241.451 290.469 242.049 287.643 242.805 285.039C243.56 282.409 244.549 280.117 245.773 278.164C246.997 276.211 248.508 274.688 250.305 273.594C252.128 272.5 254.302 271.953 256.828 271.953C259.51 271.953 261.867 272.461 263.898 273.477C265.956 274.492 267.674 275.951 269.055 277.852C270.461 279.727 271.516 281.979 272.219 284.609C272.922 287.24 273.273 290.156 273.273 293.359ZM260.109 294.18V293.359C260.109 291.719 259.992 290.221 259.758 288.867C259.523 287.487 259.146 286.289 258.625 285.273C258.13 284.258 257.466 283.477 256.633 282.93C255.799 282.383 254.771 282.109 253.547 282.109C252.141 282.109 250.956 282.331 249.992 282.773C249.055 283.19 248.299 283.841 247.727 284.727C247.18 285.586 246.789 286.667 246.555 287.969C246.346 289.245 246.255 290.742 246.281 292.461V295.664C246.229 297.643 246.424 299.388 246.867 300.898C247.31 302.383 248.078 303.542 249.172 304.375C250.266 305.208 251.75 305.625 253.625 305.625C254.875 305.625 255.917 305.339 256.75 304.766C257.583 304.167 258.247 303.346 258.742 302.305C259.237 301.237 259.589 300.013 259.797 298.633C260.005 297.253 260.109 295.768 260.109 294.18Z" fill="black"/>
<path d="M293.039 272.734V315H279.836V272.734H293.039ZM279.055 261.836C279.055 259.961 279.732 258.424 281.086 257.227C282.44 256.029 284.198 255.43 286.359 255.43C288.521 255.43 290.279 256.029 291.633 257.227C292.987 258.424 293.664 259.961 293.664 261.836C293.664 263.711 292.987 265.247 291.633 266.445C290.279 267.643 288.521 268.242 286.359 268.242C284.198 268.242 282.44 267.643 281.086 266.445C279.732 265.247 279.055 263.711 279.055 261.836Z" fill="black"/>
<path d="M346.906 258.125V315H333.195V258.125H346.906ZM364.016 258.125V268.711H316.477V258.125H364.016Z" fill="black"/>
<path d="M379.914 283.203V315H366.75V272.734H379.055L379.914 283.203ZM392.414 272.422L392.18 284.648C391.659 284.596 390.956 284.531 390.07 284.453C389.185 284.375 388.443 284.336 387.844 284.336C386.307 284.336 384.979 284.518 383.859 284.883C382.766 285.221 381.854 285.742 381.125 286.445C380.422 287.122 379.901 287.982 379.562 289.023C379.25 290.065 379.107 291.276 379.133 292.656L376.75 291.094C376.75 288.255 377.023 285.677 377.57 283.359C378.143 281.016 378.951 278.997 379.992 277.305C381.034 275.586 382.297 274.271 383.781 273.359C385.266 272.422 386.932 271.953 388.781 271.953C389.432 271.953 390.07 271.992 390.695 272.07C391.346 272.148 391.919 272.266 392.414 272.422Z" fill="black"/>
<path d="M417.727 304.375V286.953C417.727 285.755 417.557 284.727 417.219 283.867C416.88 283.008 416.346 282.344 415.617 281.875C414.888 281.38 413.911 281.133 412.688 281.133C411.698 281.133 410.852 281.302 410.148 281.641C409.445 281.979 408.911 282.487 408.547 283.164C408.182 283.841 408 284.701 408 285.742H394.836C394.836 283.789 395.266 281.979 396.125 280.312C397.01 278.62 398.26 277.148 399.875 275.898C401.516 274.648 403.469 273.685 405.734 273.008C408.026 272.305 410.578 271.953 413.391 271.953C416.75 271.953 419.745 272.513 422.375 273.633C425.031 274.753 427.128 276.432 428.664 278.672C430.201 280.885 430.969 283.672 430.969 287.031V304.336C430.969 307.096 431.125 309.193 431.438 310.625C431.75 312.031 432.193 313.268 432.766 314.336V315H419.562C418.938 313.698 418.469 312.109 418.156 310.234C417.87 308.333 417.727 306.38 417.727 304.375ZM419.328 289.18L419.406 296.211H413.586C412.362 296.211 411.32 296.38 410.461 296.719C409.628 297.057 408.951 297.526 408.43 298.125C407.935 298.698 407.57 299.349 407.336 300.078C407.128 300.807 407.023 301.576 407.023 302.383C407.023 303.164 407.206 303.867 407.57 304.492C407.961 305.091 408.482 305.56 409.133 305.898C409.784 306.237 410.513 306.406 411.32 306.406C412.779 306.406 414.016 306.133 415.031 305.586C416.073 305.013 416.867 304.323 417.414 303.516C417.961 302.708 418.234 301.953 418.234 301.25L421.125 306.641C420.604 307.682 420.005 308.737 419.328 309.805C418.677 310.872 417.857 311.862 416.867 312.773C415.904 313.659 414.719 314.388 413.312 314.961C411.906 315.508 410.201 315.781 408.195 315.781C405.591 315.781 403.195 315.247 401.008 314.18C398.846 313.112 397.115 311.628 395.812 309.727C394.51 307.799 393.859 305.586 393.859 303.086C393.859 300.898 394.25 298.945 395.031 297.227C395.839 295.508 397.049 294.049 398.664 292.852C400.279 291.654 402.336 290.742 404.836 290.117C407.336 289.492 410.279 289.18 413.664 289.18H419.328Z" fill="black"/>
<path d="M452.883 305.977L461.203 272.734H475.07L461.242 315H453.039L452.883 305.977ZM447.961 272.734L456.164 305.977L456.086 315H447.844L434.055 272.734H447.961Z" fill="black"/>
<path d="M498.898 315.781C495.461 315.781 492.388 315.247 489.68 314.18C486.971 313.086 484.68 311.589 482.805 309.688C480.956 307.786 479.536 305.599 478.547 303.125C477.583 300.651 477.102 298.034 477.102 295.273V293.789C477.102 290.69 477.531 287.826 478.391 285.195C479.25 282.539 480.526 280.221 482.219 278.242C483.911 276.263 486.034 274.727 488.586 273.633C491.138 272.513 494.107 271.953 497.492 271.953C500.487 271.953 503.169 272.435 505.539 273.398C507.909 274.362 509.914 275.742 511.555 277.539C513.221 279.336 514.484 281.51 515.344 284.062C516.229 286.615 516.672 289.479 516.672 292.656V298.008H482.141V289.766H503.82V288.75C503.846 287.344 503.599 286.146 503.078 285.156C502.583 284.167 501.854 283.411 500.891 282.891C499.927 282.37 498.755 282.109 497.375 282.109C495.943 282.109 494.758 282.422 493.82 283.047C492.909 283.672 492.193 284.531 491.672 285.625C491.177 286.693 490.826 287.93 490.617 289.336C490.409 290.742 490.305 292.227 490.305 293.789V295.273C490.305 296.836 490.513 298.255 490.93 299.531C491.372 300.807 491.997 301.901 492.805 302.812C493.638 303.698 494.628 304.388 495.773 304.883C496.945 305.378 498.273 305.625 499.758 305.625C501.555 305.625 503.326 305.286 505.07 304.609C506.815 303.932 508.312 302.812 509.562 301.25L515.539 308.359C514.68 309.583 513.456 310.768 511.867 311.914C510.305 313.06 508.43 313.997 506.242 314.727C504.055 315.43 501.607 315.781 498.898 315.781Z" fill="black"/>
<path d="M535.93 255V315H522.727V255H535.93Z" fill="black"/>
<defs>
<clipPath id="clip0_6840_111995">
<rect x="256" y="104.52" width="124" height="96.48" rx="6" fill="white"/>
</clipPath>
</defs>
</svg>
