<svg width="111" height="85" viewBox="0 0 111 85" fill="none" xmlns="http://www.w3.org/2000/svg">
<rect x="0.5" width="110" height="85" rx="42.5" fill="#A3DB5A"/>
<rect x="0.5" width="110" height="85" rx="16" fill="#F14635"/>
<path fill-rule="evenodd" clip-rule="evenodd" d="M44.1863 17.4532C38.7852 17.4532 35.3474 21.6783 35.3474 27.2623C35.3474 28.516 35.5207 29.6028 35.8607 30.5317H33.1392C30.6984 30.5317 28.7197 32.4836 28.7197 34.8913V43.6106H30.9311V61.049C30.9311 63.4568 32.9097 65.4087 35.3505 65.4087H70.7063C73.1471 65.4087 75.1257 63.4568 75.1257 61.049V43.6106H77.3339V34.8913C77.3339 32.4836 75.3552 30.5317 72.9144 30.5317H71.0816C71.4216 29.6028 71.5949 28.516 71.5949 27.2623C71.5949 21.6783 68.1571 17.4532 62.756 17.4532C59.2046 17.4532 56.2976 20.8993 53.4712 27.6743C50.6447 20.8993 47.7377 17.4532 44.1863 17.4532ZM62.756 34.8917H56.1237H50.8186H44.1863C44.1108 34.8917 44.0357 34.8913 43.961 34.8905H33.1401V39.2501H72.9153V34.8905H62.9813C62.9066 34.8913 62.8315 34.8917 62.756 34.8917ZM67.1748 27.2629C67.1748 29.8053 66.3051 30.5042 62.9673 30.5317H57.0789L57.2684 30.0557C59.4247 24.7258 61.379 22.0177 62.6159 21.8245L62.7554 21.8133C65.4755 21.8133 67.1748 23.9017 67.1748 27.2629ZM49.8634 30.5317L49.6738 30.0557C47.5175 24.7258 45.5633 22.0177 44.3264 21.8245L44.1869 21.8133C41.4667 21.8133 39.7674 23.9017 39.7674 27.2629C39.7674 29.8053 40.6372 30.5042 43.975 30.5317H49.8634ZM35.3473 61.0486V43.6106H70.7031V61.0486H55.2359V43.6115H50.8165V61.0486H35.3473Z" fill="white"/>
<rect x="48.165" y="29.4408" width="34.0299" height="35.9669" fill="#F14635"/>
<path fill-rule="evenodd" clip-rule="evenodd" d="M67.6125 36.6343H60.3204H55.459V41.4299V48.6233H60.3204V41.4299H67.6125V36.6343Z" fill="white"/>
<path fill-rule="evenodd" clip-rule="evenodd" d="M72.4715 36.6343H79.7636H84.625V41.4299V48.6233H79.7636V41.4299H72.4715V36.6343Z" fill="white"/>
<path fill-rule="evenodd" clip-rule="evenodd" d="M67.6125 65.4093H60.3204H55.459V60.6137V53.4203H60.3204V60.6137H67.6125V65.4093Z" fill="white"/>
<path fill-rule="evenodd" clip-rule="evenodd" d="M72.4715 65.4093H79.7636H84.625V60.6137V53.4203H79.7636V60.6137H72.4715V65.4093Z" fill="white"/>
</svg>
